<svg id="website-icon" xmlns="http://www.w3.org/2000/svg" viewBox="0 0 50 50"><path d="M25,0A25,25,0,1,0,50,25,25,25,0,0,0,25,0ZM44.06,15.63h-8.8L29.8,4.3A21.33,21.33,0,0,1,44.06,15.63ZM46.25,25a21.37,21.37,0,0,1-.76,5.63H36V19.38h9.53A21.24,21.24,0,0,1,46.25,25ZM25,46.25h-.38L18.9,34.38H31.1L25.38,46.24ZM4.51,30.63a21.2,21.2,0,0,1,0-11.25H14V30.63Zm13.28,0V19.38H32.21V30.63ZM25,3.75h.38L31.1,15.63H18.9L24.62,3.76Zm-4.8.55L14.74,15.63H5.94A21.33,21.33,0,0,1,20.2,4.3ZM5.94,34.38h8.8L20.2,45.7A21.35,21.35,0,0,1,5.94,34.38ZM29.8,45.7l5.46-11.32h8.8A21.35,21.35,0,0,1,29.8,45.7Z"/></svg>