<svg id="apple-pay" xmlns="http://www.w3.org/2000/svg" viewBox="0 0 42.63 17.7"><path d="M7.79,2.28a2.57,2.57,0,0,1-2.1,1,3.07,3.07,0,0,1,.75-2.2A3.12,3.12,0,0,1,8.52,0,3.2,3.2,0,0,1,7.79,2.28Zm.72,1.16c-1.15-.06-2.15.67-2.7.67s-1.4-.63-2.31-.62A3.42,3.42,0,0,0,.6,5.28c-1.26,2.17-.33,5.39.88,7.16.59.87,1.3,1.83,2.23,1.8s1.23-.58,2.3-.58,1.38.58,2.32.56,1.57-.88,2.16-1.75a7.84,7.84,0,0,0,1-2A3.15,3.15,0,0,1,9.57,7.57,3.23,3.23,0,0,1,11.1,4.86,3.31,3.31,0,0,0,8.52,3.44ZM15.2,1V14.13h2V9.64H20A4.13,4.13,0,0,0,24.34,5.7a2.54,2.54,0,0,0,0-.39A4.09,4.09,0,0,0,20.47,1c-.13,0-.26,0-.39,0Zm2,1.72h2.32a2.43,2.43,0,0,1,2.73,2.09,2.18,2.18,0,0,1,0,.51A2.44,2.44,0,0,1,20,7.94a2.18,2.18,0,0,1-.51,0H17.22V2.72ZM28,14.23a3.34,3.34,0,0,0,3-1.68h0v1.58H32.9V7.59c0-1.89-1.5-3.11-3.8-3.11-2.14,0-3.72,1.24-3.78,2.94h1.81A1.77,1.77,0,0,1,29,6.08c1.23,0,1.92.58,1.92,1.65v.72l-2.51.15c-2.34.15-3.61,1.12-3.61,2.8a2.86,2.86,0,0,0,2.89,2.84H28Zm.54-1.56c-1.08,0-1.76-.52-1.76-1.32S27.47,10,28.73,10L31,9.83v.74a2.19,2.19,0,0,1-2.28,2.11h-.11Zm6.83,5c2,0,2.89-.76,3.7-3.06l3.53-10H40.58l-2.37,7.75h0L35.8,4.6H33.69l3.41,9.56-.18.58a1.6,1.6,0,0,1-1.7,1.36l-.59,0v1.57a3.89,3.89,0,0,0,.76.05Z"/></svg>