<svg id="mb-way" xmlns="http://www.w3.org/2000/svg" viewBox="0 0 41.23 19.99"><path d="M0,17.85a4.31,4.31,0,0,0,.1-.61A.75.75,0,0,1,1,16.61H1a.79.79,0,0,1,.64.83c0,.17-.05.34-.06.51a.45.45,0,0,0,.34.53H19.54A.43.43,0,0,0,20,18v0c0-.17,0-.34-.06-.51a.76.76,0,0,1,.62-.87.74.74,0,0,1,.87.58v0a3.56,3.56,0,0,1,0,1.38A1.7,1.7,0,0,1,19.78,20H1.88a2.44,2.44,0,0,1-.66-.08A1.7,1.7,0,0,1,0,18.49s0-.11,0-.16Z"/><path d="M2.89,7.45c-.08.69-.17,1.32-.25,2-.15,1.26-.31,2.51-.46,3.76-.05.35-.09.7-.12,1a.67.67,0,0,1-.44.6,1.05,1.05,0,0,1-.58,0,.6.6,0,0,1-.5-.68v0c.08-.7.17-1.4.26-2.1.16-1.21.31-2.42.47-3.64.11-.9.22-1.79.34-2.68a.63.63,0,0,1,.49-.53,1.34,1.34,0,0,1,1.19.19,1.37,1.37,0,0,1,.38.48A21.39,21.39,0,0,1,4.83,8.39c.48,1.17.93,2.34,1.37,3.52l.07.16c.07,0,.07-.11.09-.17C7,10.29,7.57,8.67,8.28,7.1A8.6,8.6,0,0,1,9,5.65a1.12,1.12,0,0,1,.91-.51,1.79,1.79,0,0,1,.56,0,.65.65,0,0,1,.46.58c.23,1.74.45,3.48.68,5.22.14,1.06.27,2.12.41,3.18a.62.62,0,0,1-.46.68,1,1,0,0,1-.71-.07.62.62,0,0,1-.36-.52c-.16-1.55-.37-3.1-.56-4.64l-.24-2,0-.16c-.2.4-.39.78-.55,1.17-.65,1.61-1.22,3.26-1.78,4.91l-.13.39a1,1,0,0,1-1.85,0c-.42-1.22-.83-2.44-1.28-3.64A22,22,0,0,0,3,7.58S2.93,7.53,2.89,7.45Z"/><path d="M12.82,10V6a.76.76,0,0,1,.65-.86h3.7a2.75,2.75,0,0,1,2.75,2.75v.05a2.2,2.2,0,0,1-.61,1.51c-.1.1-.09.14,0,.21A2.68,2.68,0,0,1,20.69,12a2.86,2.86,0,0,1-2.25,2.81,3.7,3.7,0,0,1-.66.07h-4.1a.78.78,0,0,1-.86-.68.6.6,0,0,1,0-.19Zm1.47,0V13.2c0,.15,0,.18.18.18h3.18a2.6,2.6,0,0,0,.56,0,1.45,1.45,0,0,0,1.1-1.18,1.33,1.33,0,0,0-.75-1.4,2.06,2.06,0,0,0-.91-.21H16a.72.72,0,0,1-.77-.66.71.71,0,0,1,.67-.76H17a2.61,2.61,0,0,0,.48-.05,1.28,1.28,0,0,0,1-1.2,1.31,1.31,0,0,0-.92-1.27A1.63,1.63,0,0,0,17,6.55H14.47c-.14,0-.18,0-.18.18V10Z"/><path d="M10.77,0h6.61a1.81,1.81,0,0,1,1.83,1.23,3.5,3.5,0,0,1,.23.9l.06.4a.79.79,0,0,1-.63.89A.76.76,0,0,1,18,2.8v0c0-.21-.06-.42-.1-.63a.69.69,0,0,0-.75-.62H4.51c-.55,0-.77.18-.87.71,0,.21-.06.42-.1.63a.75.75,0,0,1-.78.56.71.71,0,0,1-.68-.64A3.19,3.19,0,0,1,2.77.57,1.64,1.64,0,0,1,4.07,0h6.7Z"/><path d="M28,9l-.39,1.55a17.44,17.44,0,0,1-.49,1.75,2.77,2.77,0,0,1-.1.26c-.17.48-.55.51-.94.39a.48.48,0,0,1-.29-.3,12.31,12.31,0,0,1-.47-1.57c-.32-1.25-.57-2.51-.82-3.77a.38.38,0,0,1,.23-.5l.08,0a.44.44,0,0,1,.55.28.5.5,0,0,1,0,.12c.29,1.48.58,3,.95,4.42a.28.28,0,0,0,.07.17c.21-.74.42-1.47.6-2.2l.51-2.17a.8.8,0,0,1,.17-.33.5.5,0,0,1,.71,0,.53.53,0,0,1,.16.27c.18.75.34,1.52.51,2.27s.31,1.34.51,2l.06.17c.11-.36.18-.69.26-1l.78-3.58a.44.44,0,0,1,.48-.39l.12,0a.4.4,0,0,1,.29.48s0,0,0,0c-.13.62-.26,1.25-.4,1.87a31.21,31.21,0,0,1-.76,3c-.05.14-.1.29-.16.43a.61.61,0,0,1-.67.36.55.55,0,0,1-.56-.4c-.26-.73-.44-1.49-.63-2.24-.12-.45-.22-.91-.33-1.36Z"/><path d="M36.49,13a.35.35,0,0,1-.38-.28c-.16-.46-.32-.92-.47-1.38,0-.09-.07-.14-.18-.14H33.3a.16.16,0,0,0-.18.13h0c-.14.47-.29.94-.43,1.41a.44.44,0,0,1-.51.34h0a.43.43,0,0,1-.33-.51h0a4.67,4.67,0,0,1,.14-.5c.46-1.44.92-2.89,1.5-4.3.1-.23.22-.46.33-.7a.52.52,0,0,1,.44-.3.61.61,0,0,1,.77.42c.62,1.47,1.13,3,1.63,4.48.09.26.18.52.26.78a.41.41,0,0,1-.22.52A.44.44,0,0,1,36.49,13Zm-2.1-5.2c-.36.83-.62,1.65-.89,2.46,0,.13,0,.11.11.11h1.55c.13,0,.15,0,.11-.16-.18-.5-.34-1-.52-1.5-.11-.29-.23-.58-.36-.91Z"/><path d="M38.68,11.66c0-.28,0-.57,0-.86s-.28-.46-.42-.7A24.86,24.86,0,0,1,37,7.62a2,2,0,0,1-.09-.22.4.4,0,0,1,.2-.54l0,0a.43.43,0,0,1,.57.19l0,0c.33.77.68,1.53,1.07,2.26a1.34,1.34,0,0,0,.28.42,1.91,1.91,0,0,0,.26-.41c.38-.72.71-1.46,1-2.2.12-.29.25-.36.53-.32a.33.33,0,0,1,.3.35h0a1.24,1.24,0,0,1-.1.5,16.22,16.22,0,0,1-1.35,2.62,1.29,1.29,0,0,0-.23.85c0,.48,0,.95,0,1.43,0,.31-.16.48-.43.48a.44.44,0,0,1-.44-.45v-.94Z"/></svg>