<svg id="visa" xmlns="http://www.w3.org/2000/svg" viewBox="0 0 45.59 13.97"><path d="M33.14.57A9.56,9.56,0,0,0,29.83,0c-3.64,0-6.22,1.84-6.24,4.47,0,1.94,1.83,3,3.23,3.68s1.92,1.08,1.92,1.68c0,.91-1.15,1.32-2.21,1.32a7.87,7.87,0,0,1-3.48-.71l-.45-.22-.51,3a12.32,12.32,0,0,0,4.13.71c3.87,0,6.41-1.82,6.44-4.63,0-1.55-1-2.72-3.08-3.68C28.3,5,27.5,4.62,27.5,4s.68-1.17,2.11-1.17a6.88,6.88,0,0,1,2.76.52l.34.16L33.23.55l-.09,0ZM42.6.25H39.75a1.82,1.82,0,0,0-1.93,1.12L32.34,13.78h3.87l.78-2h4.73c.11.48.45,2,.45,2h3.42L42.6.25ZM18.35.14H22L19.73,13.68H16L18.35.13ZM9,7.6l.38,1.88L13,.25h3.91L11.06,13.76H7.16L4,2.32a.79.79,0,0,0-.35-.45A15.46,15.46,0,0,0,0,.52L.05.24H6A1.53,1.53,0,0,1,7.67,1.39L9,7.6ZM38.05,9l1.47-3.79s.3-.78.49-1.29l.25,1.17L41.11,9H38.05Z"/></svg>