<svg id="paypal" xmlns="http://www.w3.org/2000/svg" viewBox="0 0 62.92 16.79"><path d="M34.66,4.53H32.31a.68.68,0,0,0-.57.3L28.49,9.61,27.12,5a.69.69,0,0,0-.66-.48H24.15a.41.41,0,0,0-.41.41.59.59,0,0,0,0,.13l2.6,7.61-2.44,3.44a.41.41,0,0,0,.09.57.43.43,0,0,0,.24.08H26.6a.67.67,0,0,0,.56-.29L35,5.17a.41.41,0,0,0-.1-.57.4.4,0,0,0-.24-.07ZM18.91,9.09a2.61,2.61,0,0,1-2.64,2.24,1.82,1.82,0,0,1-2-1.62,1.63,1.63,0,0,1,.05-.66A2.62,2.62,0,0,1,17,6.79a2,2,0,0,1,1.57.64,2.06,2.06,0,0,1,.4,1.66Zm3.27-4.56H19.84a.41.41,0,0,0-.4.34l-.1.66-.17-.24a3.32,3.32,0,0,0-2.77-1A5.38,5.38,0,0,0,11.17,9a4.43,4.43,0,0,0,.87,3.6,3.65,3.65,0,0,0,3,1.19,4.45,4.45,0,0,0,3.24-1.34l-.1.65a.41.41,0,0,0,.34.47h2.17a.68.68,0,0,0,.67-.58l1.27-8a.42.42,0,0,0-.34-.47h-.07Zm-14.07,0c-.26,1.76-1.6,1.76-2.9,1.76H4.47L5,3.06a.4.4,0,0,1,.4-.34h.34c.88,0,1.72,0,2.15.5a1.63,1.63,0,0,1,.23,1.36ZM7.55,0H2.66A.69.69,0,0,0,2,.57L0,13.12a.41.41,0,0,0,.35.47H2.74A.71.71,0,0,0,3.42,13L4,9.64a.68.68,0,0,1,.67-.58H6.17c3.22,0,5.09-1.56,5.57-4.65a3.76,3.76,0,0,0-.62-3.16A4.56,4.56,0,0,0,7.55,0Zm52.3.34-2,12.79a.41.41,0,0,0,.34.46h2.08a.68.68,0,0,0,.67-.58l2-12.55A.39.39,0,0,0,62.57,0H60.25a.41.41,0,0,0-.4.35Zm-6,8.75a2.61,2.61,0,0,1-2.64,2.24,1.8,1.8,0,0,1-1.94-2.28,2.62,2.62,0,0,1,2.62-2.26,2,2,0,0,1,1.57.64,2,2,0,0,1,.4,1.66Zm3.27-4.56H54.75a.41.41,0,0,0-.4.34l-.1.66-.17-.24a3.32,3.32,0,0,0-2.77-1A5.39,5.39,0,0,0,46.08,9a4.43,4.43,0,0,0,.87,3.6,3.65,3.65,0,0,0,3,1.19,4.45,4.45,0,0,0,3.24-1.34l-.1.66a.41.41,0,0,0,.34.46h2.17a.69.69,0,0,0,.67-.58L57.5,5a.42.42,0,0,0-.34-.47h-.07ZM43,4.58c-.26,1.76-1.61,1.76-2.91,1.76h-.73l.52-3.28a.4.4,0,0,1,.4-.34h.34c.88,0,1.71,0,2.14.5A1.6,1.6,0,0,1,43,4.58ZM42.46,0H37.57a.69.69,0,0,0-.68.57l-2,12.55a.41.41,0,0,0,.34.47h2.58a.48.48,0,0,0,.47-.41l.56-3.55a.69.69,0,0,1,.67-.58h1.55c3.23,0,5.09-1.56,5.57-4.65A3.76,3.76,0,0,0,46,1.25,4.53,4.53,0,0,0,42.46,0Z"/></svg>