<svg width="16" height="16" viewBox="0 0 16 16" fill="none" xmlns="http://www.w3.org/2000/svg"><path d="M7.99998 14.6666C7.07776 14.6666 6.21109 14.4915 5.39998 14.1413C4.58887 13.7915 3.88331 13.3166 3.28331 12.7166C2.68331 12.1166 2.20842 11.4111 1.85865 10.6C1.50842 9.78887 1.33331 8.9222 1.33331 7.99998C1.33331 7.07776 1.50842 6.21109 1.85865 5.39998C2.20842 4.58887 2.68331 3.88331 3.28331 3.28331C3.88331 2.68331 4.58887 2.2082 5.39998 1.85798C6.21109 1.5082 7.07776 1.33331 7.99998 1.33331C8.9222 1.33331 9.78887 1.5082 10.6 1.85798C11.4111 2.2082 12.1166 2.68331 12.7166 3.28331C13.3166 3.88331 13.7915 4.58887 14.1413 5.39998C14.4915 6.21109 14.6666 7.07776 14.6666 7.99998C14.6666 8.9222 14.4915 9.78887 14.1413 10.6C13.7915 11.4111 13.3166 12.1166 12.7166 12.7166C12.1166 13.3166 11.4111 13.7915 10.6 14.1413C9.78887 14.4915 8.9222 14.6666 7.99998 14.6666ZM5.59998 11.3333L7.99998 8.93331L10.4 11.3333L11.3333 10.4L8.93331 7.99998L11.3333 5.59998L10.4 4.66665L7.99998 7.06665L5.59998 4.66665L4.66665 5.59998L7.06665 7.99998L4.66665 10.4L5.59998 11.3333Z" fill="#990000"/></svg>
