<svg id="map-icon" xmlns="http://www.w3.org/2000/svg" viewBox="0 0 50 50"><circle cx="25" cy="16.08" r="3.52"/><path d="M36,28.49,30.71,33.8l-11.1-5.55-1.48.24-6,6a1.28,1.28,0,0,0,.91,2.19,1.28,1.28,0,0,0,.91-.37L19.29,31l11.1,5.55,1.48-.24,6-6A1.28,1.28,0,1,0,36,28.49Z"/><path d="M40.46,21.91l-1.15-.71h-7a11.07,11.07,0,0,0,1.42-5.12,8.69,8.69,0,1,0-17.38,0,11.07,11.07,0,0,0,1.42,5.12h-7l-1.15.71L0,40.74l1.15,1.87h47.7L50,40.74ZM25,10a6.13,6.13,0,0,1,6.12,6.12c0,4.14-4.31,8.37-6.12,10a26.27,26.27,0,0,1-2.76-2.8c-1.53-1.8-3.36-4.51-3.36-7.17A6.13,6.13,0,0,1,25,10ZM3.24,40l8.24-16.27h7.89a28.85,28.85,0,0,0,4.84,5h1.58a28.85,28.85,0,0,0,4.84-5h7.89L46.76,40Z"/></svg>